<svg xmlns="http://www.w3.org/2000/svg" width="1600" height="900" viewBox="0 0 1600 900">
    <defs>
      <linearGradient id="top" x1="0" y1="0" x2="1" y2="0">
        <stop offset="0" stop-color="#101820"/><stop offset="1" stop-color="#172536"/>
      </linearGradient>
      <filter id="sh"><feDropShadow dx="0" dy="10" stdDeviation="14" flood-color="#000" flood-opacity=".16"/></filter>
    </defs>
    <rect width="1600" height="900" fill="#e9edf2"/>
    <rect x="45" y="35" width="1510" height="810" rx="18" fill="#ffffff" stroke="#c7cfd8" stroke-width="2" filter="url(#sh)"/>
    <rect x="45" y="35" width="1510" height="54" rx="18" fill="url(#top)"/>
    <circle cx="75" cy="62" r="8" fill="#ff5f57"/><circle cx="101" cy="62" r="8" fill="#ffbd2e"/><circle cx="127" cy="62" r="8" fill="#28c840"/>
    <text x="160" y="69" font-family="Arial" font-size="23" font-weight="700" fill="#fff">IA Gestão Desktop</text>
    <text x="1450" y="68" font-family="Arial" font-size="15" fill="#c8d3df">Aplicativo Desktop</text>
    <rect x="45" y="89" width="240" height="756" fill="#111b27"/>
    <rect x="62" y="112" width="205" height="42" rx="8" fill="#1976ff"/><text x="82" y="142" font-family="Arial" font-size="18" fill="#fff">Dashboard</text><text x="82" y="194" font-family="Arial" font-size="18" fill="#c9d3df">Vendas</text><text x="82" y="246" font-family="Arial" font-size="18" fill="#c9d3df">Ordem de Serviço</text><text x="82" y="298" font-family="Arial" font-size="18" fill="#c9d3df">Orçamentos</text><text x="82" y="350" font-family="Arial" font-size="18" fill="#c9d3df">Clientes</text><text x="82" y="402" font-family="Arial" font-size="18" fill="#c9d3df">Produtos</text><text x="82" y="454" font-family="Arial" font-size="18" fill="#c9d3df">Financeiro</text><text x="82" y="506" font-family="Arial" font-size="18" fill="#c9d3df">Relatórios</text><text x="320" y="132" font-family="Arial" font-size="32" font-weight="700" fill="#1d2a39">Gestão Empresarial Desktop</text><text x="320" y="162" font-family="Arial" font-size="17" fill="#6d7a89">Visão operacional e gerencial do sistema</text><rect x="320" y="195" width="255" height="110" rx="14" fill="#f8fafc" stroke="#dce3ea"/><rect x="320" y="195" width="7" height="110" rx="4" fill="#1976ff"/><text x="348" y="232" font-family="Arial" font-size="15" fill="#7b8794">Vendas no mês</text><text x="348" y="278" font-family="Arial" font-size="30" font-weight="700" fill="#1f2d3d">R$ 92.450</text><rect x="610" y="195" width="255" height="110" rx="14" fill="#f8fafc" stroke="#dce3ea"/><rect x="610" y="195" width="7" height="110" rx="4" fill="#1976ff"/><text x="638" y="232" font-family="Arial" font-size="15" fill="#7b8794">Ordens abertas</text><text x="638" y="278" font-family="Arial" font-size="30" font-weight="700" fill="#1f2d3d">38</text><rect x="900" y="195" width="255" height="110" rx="14" fill="#f8fafc" stroke="#dce3ea"/><rect x="900" y="195" width="7" height="110" rx="4" fill="#1976ff"/><text x="928" y="232" font-family="Arial" font-size="15" fill="#7b8794">Clientes</text><text x="928" y="278" font-family="Arial" font-size="30" font-weight="700" fill="#1f2d3d">1.284</text><rect x="1190" y="195" width="255" height="110" rx="14" fill="#f8fafc" stroke="#dce3ea"/><rect x="1190" y="195" width="7" height="110" rx="4" fill="#1976ff"/><text x="1218" y="232" font-family="Arial" font-size="15" fill="#7b8794">Contas a receber</text><text x="1218" y="278" font-family="Arial" font-size="30" font-weight="700" fill="#1f2d3d">R$ 41.820</text><rect x="320" y="340" width="650" height="255" rx="14" fill="#fdfefe" stroke="#dce3ea"/><text x="345" y="380" font-family="Arial" font-size="19" font-weight="700" fill="#263445">Desempenho recente</text><path d="M 360,535 L 425,510 L 490,522 L 555,465 L 620,490 L 685,430 L 750,452 L 815,395 L 900,420" fill="none" stroke="#1976ff" stroke-width="6" stroke-linecap="round"/><circle cx="360" cy="535" r="6" fill="#fff" stroke="#1976ff" stroke-width="3"/><circle cx="425" cy="510" r="6" fill="#fff" stroke="#1976ff" stroke-width="3"/><circle cx="490" cy="522" r="6" fill="#fff" stroke="#1976ff" stroke-width="3"/><circle cx="555" cy="465" r="6" fill="#fff" stroke="#1976ff" stroke-width="3"/><circle cx="620" cy="490" r="6" fill="#fff" stroke="#1976ff" stroke-width="3"/><circle cx="685" cy="430" r="6" fill="#fff" stroke="#1976ff" stroke-width="3"/><circle cx="750" cy="452" r="6" fill="#fff" stroke="#1976ff" stroke-width="3"/><circle cx="815" cy="395" r="6" fill="#fff" stroke="#1976ff" stroke-width="3"/><circle cx="900" cy="420" r="6" fill="#fff" stroke="#1976ff" stroke-width="3"/><rect x="1000" y="340" width="505" height="420" rx="14" fill="#fdfefe" stroke="#dce3ea"/><text x="1025" y="380" font-family="Arial" font-size="19" font-weight="700" fill="#263445">Últimas movimentações</text><text x="1025" y="420" font-family="Arial" font-size="14" font-weight="700" fill="#7b8794">Código</text><text x="1135" y="420" font-family="Arial" font-size="14" font-weight="700" fill="#7b8794">Descrição</text><text x="1400" y="420" font-family="Arial" font-size="14" font-weight="700" fill="#7b8794">Status</text><line x1="1025" y1="440" x2="1480" y2="440" stroke="#e8edf2"/><text x="1025" y="458" font-family="Arial" font-size="14" fill="#354252">OS-1048</text><text x="1135" y="458" font-family="Arial" font-size="14" fill="#354252">Revisão completa</text><text x="1400" y="458" font-family="Arial" font-size="14" fill="#354252">Em andamento</text><line x1="1025" y1="498" x2="1480" y2="498" stroke="#e8edf2"/><text x="1025" y="516" font-family="Arial" font-size="14" fill="#354252">VD-2196</text><text x="1135" y="516" font-family="Arial" font-size="14" fill="#354252">Venda balcão</text><text x="1400" y="516" font-family="Arial" font-size="14" fill="#354252">Finalizada</text><line x1="1025" y1="556" x2="1480" y2="556" stroke="#e8edf2"/><text x="1025" y="574" font-family="Arial" font-size="14" fill="#354252">OR-0782</text><text x="1135" y="574" font-family="Arial" font-size="14" fill="#354252">Orçamento cliente</text><text x="1400" y="574" font-family="Arial" font-size="14" fill="#354252">Pendente</text><line x1="1025" y1="614" x2="1480" y2="614" stroke="#e8edf2"/><text x="1025" y="632" font-family="Arial" font-size="14" fill="#354252">OS-1047</text><text x="1135" y="632" font-family="Arial" font-size="14" fill="#354252">Troca de peças</text><text x="1400" y="632" font-family="Arial" font-size="14" fill="#354252">Finalizada</text><line x1="1025" y1="672" x2="1480" y2="672" stroke="#e8edf2"/><text x="1025" y="690" font-family="Arial" font-size="14" fill="#354252">CP-0841</text><text x="1135" y="690" font-family="Arial" font-size="14" fill="#354252">Compra fornecedor</text><text x="1400" y="690" font-family="Arial" font-size="14" fill="#354252">Recebida</text><rect x="320" y="630" width="650" height="130" rx="14" fill="#f8fafc" stroke="#dce3ea"/><text x="345" y="670" font-family="Arial" font-size="18" font-weight="700" fill="#263445">Recursos do sistema</text><text x="345" y="705" font-family="Arial" font-size="15" fill="#5e6c7b">Interface desktop • Banco de dados • Relatórios • Usuários e permissões • Backup</text><text x="345" y="735" font-family="Arial" font-size="15" fill="#5e6c7b">Operação local ou integrada à rede da empresa</text></svg>