<svg xmlns="http://www.w3.org/2000/svg" width="1600" height="900" viewBox="0 0 1600 900">
    <defs>
      <linearGradient id="top" x1="0" y1="0" x2="1" y2="0">
        <stop offset="0" stop-color="#101820"/><stop offset="1" stop-color="#172536"/>
      </linearGradient>
      <filter id="sh"><feDropShadow dx="0" dy="10" stdDeviation="14" flood-color="#000" flood-opacity=".16"/></filter>
    </defs>
    <rect width="1600" height="900" fill="#e9edf2"/>
    <rect x="45" y="35" width="1510" height="810" rx="18" fill="#ffffff" stroke="#c7cfd8" stroke-width="2" filter="url(#sh)"/>
    <rect x="45" y="35" width="1510" height="54" rx="18" fill="url(#top)"/>
    <circle cx="75" cy="62" r="8" fill="#ff5f57"/><circle cx="101" cy="62" r="8" fill="#ffbd2e"/><circle cx="127" cy="62" r="8" fill="#28c840"/>
    <text x="160" y="69" font-family="Arial" font-size="23" font-weight="700" fill="#fff">IA PDV Desktop</text>
    <text x="1450" y="68" font-family="Arial" font-size="15" fill="#c8d3df">Aplicativo Desktop</text>
    <rect x="45" y="89" width="240" height="756" fill="#111b27"/>
    <rect x="62" y="112" width="205" height="42" rx="8" fill="#f59e0b"/><text x="82" y="142" font-family="Arial" font-size="18" fill="#fff">Dashboard</text><text x="82" y="194" font-family="Arial" font-size="18" fill="#c9d3df">PDV</text><text x="82" y="246" font-family="Arial" font-size="18" fill="#c9d3df">Caixa</text><text x="82" y="298" font-family="Arial" font-size="18" fill="#c9d3df">Produtos</text><text x="82" y="350" font-family="Arial" font-size="18" fill="#c9d3df">Clientes</text><text x="82" y="402" font-family="Arial" font-size="18" fill="#c9d3df">Estoque</text><text x="82" y="454" font-family="Arial" font-size="18" fill="#c9d3df">Fechamento</text><text x="82" y="506" font-family="Arial" font-size="18" fill="#c9d3df">Configurações</text><text x="320" y="132" font-family="Arial" font-size="32" font-weight="700" fill="#1d2a39">Frente de Caixa e Vendas</text><text x="320" y="162" font-family="Arial" font-size="17" fill="#6d7a89">Visão operacional e gerencial do sistema</text><rect x="320" y="195" width="255" height="110" rx="14" fill="#f8fafc" stroke="#dce3ea"/><rect x="320" y="195" width="7" height="110" rx="4" fill="#f59e0b"/><text x="348" y="232" font-family="Arial" font-size="15" fill="#7b8794">Vendas hoje</text><text x="348" y="278" font-family="Arial" font-size="30" font-weight="700" fill="#1f2d3d">R$ 18.760</text><rect x="610" y="195" width="255" height="110" rx="14" fill="#f8fafc" stroke="#dce3ea"/><rect x="610" y="195" width="7" height="110" rx="4" fill="#f59e0b"/><text x="638" y="232" font-family="Arial" font-size="15" fill="#7b8794">Cupons</text><text x="638" y="278" font-family="Arial" font-size="30" font-weight="700" fill="#1f2d3d">147</text><rect x="900" y="195" width="255" height="110" rx="14" fill="#f8fafc" stroke="#dce3ea"/><rect x="900" y="195" width="7" height="110" rx="4" fill="#f59e0b"/><text x="928" y="232" font-family="Arial" font-size="15" fill="#7b8794">Caixa atual</text><text x="928" y="278" font-family="Arial" font-size="30" font-weight="700" fill="#1f2d3d">R$ 21.430</text><rect x="1190" y="195" width="255" height="110" rx="14" fill="#f8fafc" stroke="#dce3ea"/><rect x="1190" y="195" width="7" height="110" rx="4" fill="#f59e0b"/><text x="1218" y="232" font-family="Arial" font-size="15" fill="#7b8794">Itens vendidos</text><text x="1218" y="278" font-family="Arial" font-size="30" font-weight="700" fill="#1f2d3d">392</text><rect x="320" y="340" width="650" height="255" rx="14" fill="#fdfefe" stroke="#dce3ea"/><text x="345" y="380" font-family="Arial" font-size="19" font-weight="700" fill="#263445">Desempenho recente</text><rect x="365" y="493.25" width="34" height="61.75" rx="5" fill="#f59e0b" opacity=".9"/><rect x="432" y="460.75" width="34" height="94.25" rx="5" fill="#f59e0b" opacity=".9"/><rect x="499" y="477.0" width="34" height="78.0" rx="5" fill="#f59e0b" opacity=".9"/><rect x="566" y="431.5" width="34" height="123.5" rx="5" fill="#f59e0b" opacity=".9"/><rect x="633" y="447.75" width="34" height="107.25" rx="5" fill="#f59e0b" opacity=".9"/><rect x="700" y="412.0" width="34" height="143.0" rx="5" fill="#f59e0b" opacity=".9"/><rect x="767" y="421.75" width="34" height="133.25" rx="5" fill="#f59e0b" opacity=".9"/><rect x="834" y="392.5" width="34" height="162.5" rx="5" fill="#f59e0b" opacity=".9"/><rect x="1000" y="340" width="505" height="420" rx="14" fill="#fdfefe" stroke="#dce3ea"/><text x="1025" y="380" font-family="Arial" font-size="19" font-weight="700" fill="#263445">Últimas movimentações</text><text x="1025" y="420" font-family="Arial" font-size="14" font-weight="700" fill="#7b8794">Código</text><text x="1135" y="420" font-family="Arial" font-size="14" font-weight="700" fill="#7b8794">Descrição</text><text x="1400" y="420" font-family="Arial" font-size="14" font-weight="700" fill="#7b8794">Status</text><line x1="1025" y1="440" x2="1480" y2="440" stroke="#e8edf2"/><text x="1025" y="458" font-family="Arial" font-size="14" fill="#354252">000884</text><text x="1135" y="458" font-family="Arial" font-size="14" fill="#354252">Venda balcão</text><text x="1400" y="458" font-family="Arial" font-size="14" fill="#354252">Concluída</text><line x1="1025" y1="498" x2="1480" y2="498" stroke="#e8edf2"/><text x="1025" y="516" font-family="Arial" font-size="14" fill="#354252">000883</text><text x="1135" y="516" font-family="Arial" font-size="14" fill="#354252">Venda balcão</text><text x="1400" y="516" font-family="Arial" font-size="14" fill="#354252">Concluída</text><line x1="1025" y1="556" x2="1480" y2="556" stroke="#e8edf2"/><text x="1025" y="574" font-family="Arial" font-size="14" fill="#354252">000882</text><text x="1135" y="574" font-family="Arial" font-size="14" fill="#354252">Cancelamento</text><text x="1400" y="574" font-family="Arial" font-size="14" fill="#354252">Cancelada</text><line x1="1025" y1="614" x2="1480" y2="614" stroke="#e8edf2"/><text x="1025" y="632" font-family="Arial" font-size="14" fill="#354252">000881</text><text x="1135" y="632" font-family="Arial" font-size="14" fill="#354252">Venda balcão</text><text x="1400" y="632" font-family="Arial" font-size="14" fill="#354252">Concluída</text><line x1="1025" y1="672" x2="1480" y2="672" stroke="#e8edf2"/><text x="1025" y="690" font-family="Arial" font-size="14" fill="#354252">000880</text><text x="1135" y="690" font-family="Arial" font-size="14" fill="#354252">Sangria caixa</text><text x="1400" y="690" font-family="Arial" font-size="14" fill="#354252">Registrada</text><rect x="320" y="630" width="650" height="130" rx="14" fill="#f8fafc" stroke="#dce3ea"/><text x="345" y="670" font-family="Arial" font-size="18" font-weight="700" fill="#263445">Recursos do sistema</text><text x="345" y="705" font-family="Arial" font-size="15" fill="#5e6c7b">Interface desktop • Banco de dados • Relatórios • Usuários e permissões • Backup</text><text x="345" y="735" font-family="Arial" font-size="15" fill="#5e6c7b">Operação local ou integrada à rede da empresa</text></svg>